<svg width="47" height="37" viewBox="0 0 47 37" fill="none" xmlns="http://www.w3.org/2000/svg">
<path d="M23.4322 30.2165C21.5201 30.216 19.651 29.6486 18.0613 28.5859C16.4716 27.5232 15.2327 26.0131 14.5012 24.2463C13.7696 22.4796 13.5784 20.5357 13.9515 18.6603C14.3247 16.7848 15.2455 15.0622 16.5977 13.7101C17.9498 12.358 19.6725 11.4371 21.5479 11.0639C23.4233 10.6908 25.3672 10.882 27.134 11.6136C28.9007 12.3451 30.4108 13.584 31.4734 15.1737C32.5361 16.7634 33.1036 18.6324 33.1042 20.5446C33.1013 23.1089 32.0814 25.5674 30.2682 27.3806C28.4549 29.1939 25.9965 30.2137 23.4322 30.2165ZM23.4322 13.5089C22.0412 13.5089 20.6814 13.9213 19.5248 14.6941C18.3682 15.4669 17.4667 16.5654 16.9344 17.8505C16.4021 19.1357 16.2628 20.5498 16.5342 21.9141C16.8056 23.2784 17.4754 24.5316 18.459 25.5152C19.4426 26.4988 20.6958 27.1687 22.0601 27.4401C23.4244 27.7114 24.8385 27.5721 26.1237 27.0398C27.4088 26.5074 28.5072 25.606 29.2801 24.4494C30.0529 23.2928 30.4654 21.9331 30.4654 20.542C30.4633 18.6774 29.7216 16.8896 28.4031 15.5711C27.0845 14.2526 25.2969 13.511 23.4322 13.5089Z" fill="#009345"/>
<path d="M41.3424 4.69402H18.0603V3.02056C18.0596 2.37369 17.8023 1.75353 17.3449 1.29612C16.8875 0.838708 16.2673 0.581451 15.6204 0.58075H7.7864C7.13952 0.581451 6.51928 0.838708 6.06187 1.29612C5.60446 1.75353 5.34721 2.37369 5.3465 3.02056V4.70195C4.0401 4.74985 2.80277 5.30099 1.89333 6.24009C0.983883 7.17919 0.472764 8.4335 0.466797 9.74077V31.3229C0.468201 32.6638 1.00151 33.9493 1.94966 34.8975C2.8978 35.8456 4.18336 36.3789 5.52423 36.3804H41.3265C42.6678 36.3825 43.9552 35.8522 44.9059 34.906C45.8566 33.9598 46.3929 32.6749 46.3971 31.3335V9.75138C46.3964 8.41074 45.8638 7.12518 44.9161 6.17696C43.9683 5.22874 42.683 4.69542 41.3424 4.69402ZM43.7611 31.3335C43.7604 31.9755 43.505 32.5909 43.051 33.0448C42.5971 33.4988 41.9816 33.7542 41.3397 33.7549H5.53743C4.89572 33.7542 4.28057 33.4987 3.82706 33.0447C3.37356 32.5907 3.11882 31.9752 3.11882 31.3335V9.75138C3.11952 9.10988 3.37452 8.49487 3.82787 8.04101C4.28123 7.58716 4.89593 7.3315 5.53743 7.3301H6.2774C6.50549 7.33863 6.73283 7.30002 6.94534 7.21671C7.15785 7.1334 7.35092 7.00723 7.51244 6.84595C7.67396 6.68468 7.80053 6.4918 7.88417 6.27942C7.9678 6.06704 8.00671 5.83975 7.99852 5.61164V3.22476H15.4242V4.96183C15.4242 4.96183 15.4242 3.87454 15.4242 5.61957C15.4157 5.84732 15.4542 6.07436 15.5374 6.28654C15.6205 6.49873 15.7465 6.69147 15.9076 6.85275C16.0686 7.01403 16.2611 7.14041 16.4732 7.22391C16.6853 7.30741 16.9123 7.34629 17.14 7.33811H41.353C41.9947 7.33951 42.6098 7.59501 43.0636 8.04878C43.5173 8.50256 43.7728 9.11765 43.7742 9.75939V31.3415L43.7611 31.3335Z" fill="#009345"/>
</svg>
