<svg width="38" height="38" viewBox="0 0 38 38" fill="none" xmlns="http://www.w3.org/2000/svg">
<g clip-path="url(#clip0_724_155)">
<path d="M11.2432 12.134C11.1341 12.134 11.026 12.1555 10.9252 12.1973C10.8244 12.239 10.7328 12.3003 10.6556 12.3774C10.5784 12.4546 10.5172 12.5462 10.4755 12.647C10.4337 12.7478 10.4122 12.8559 10.4122 12.965C10.368 17.6579 10.8066 22.3429 11.721 26.9461C11.9301 27.8182 12.4274 28.5942 13.1325 29.1484C13.8375 29.7026 14.709 30.0027 15.6058 29.9999H22.7522C23.6484 30.0005 24.5188 29.6996 25.2234 29.1457C25.9279 28.5918 26.4258 27.8171 26.637 26.9461C27.5514 22.3429 27.9899 17.6579 27.9457 12.965C27.9457 12.8559 27.9242 12.7478 27.8825 12.647C27.8407 12.5462 27.7795 12.4546 27.7023 12.3774C27.6252 12.3003 27.5336 12.239 27.4328 12.1973C27.3319 12.1555 27.2239 12.134 27.1148 12.134H11.2432ZM15.6058 17.2861C15.8262 17.2861 16.0375 17.3736 16.1934 17.5294C16.3492 17.6853 16.4368 17.8966 16.4368 18.117V22.9575C16.4368 23.1778 16.3492 23.3892 16.1934 23.545C16.0375 23.7009 15.8262 23.7884 15.6058 23.7884C15.3854 23.7884 15.174 23.7009 15.0182 23.545C14.8624 23.3892 14.7748 23.1778 14.7748 22.9575V18.117C14.7748 17.8966 14.8624 17.6853 15.0182 17.5294C15.174 17.3736 15.3854 17.2861 15.6058 17.2861ZM19.179 17.2861C19.3994 17.2861 19.6107 17.3736 19.7666 17.5294C19.9224 17.6853 20.0099 17.8966 20.0099 18.117V22.9575C20.0099 23.1778 19.9224 23.3892 19.7666 23.545C19.6107 23.7009 19.3994 23.7884 19.179 23.7884C18.9586 23.7884 18.7472 23.7009 18.5914 23.545C18.4356 23.3892 18.348 23.1778 18.348 22.9575V18.117C18.348 17.8966 18.4356 17.6853 18.5914 17.5294C18.7472 17.3736 18.9586 17.2861 19.179 17.2861ZM22.7522 17.2861C22.9725 17.2861 23.1839 17.3736 23.3397 17.5294C23.4956 17.6853 23.5831 17.8966 23.5831 18.117V22.9575C23.5831 23.1778 23.4956 23.3892 23.3397 23.545C23.1839 23.7009 22.9725 23.7884 22.7522 23.7884C22.5318 23.7884 22.3204 23.7009 22.1646 23.545C22.0087 23.3892 21.9212 23.1778 21.9212 22.9575V18.117C21.9212 17.8966 22.0087 17.6853 22.1646 17.5294C22.3204 17.3736 22.5318 17.2861 22.7522 17.2861Z" fill="#CAC6B9"/>
<path d="M17.2271 8C16.4296 8.00436 15.6659 8.32313 15.1019 8.8871C14.538 9.45107 14.2192 10.2147 14.2148 11.0123V12.9651C14.2148 13.1854 14.3024 13.3968 14.4582 13.5526C14.6141 13.7085 14.8254 13.796 15.0458 13.796C15.2662 13.796 15.4776 13.7085 15.6334 13.5526C15.7892 13.3968 15.8768 13.1854 15.8768 12.9651V11.0123C15.8746 10.8343 15.908 10.6577 15.975 10.4929C16.0421 10.3281 16.1415 10.1783 16.2673 10.0525C16.3932 9.92664 16.5429 9.82726 16.7077 9.76019C16.8726 9.69312 17.0492 9.65971 17.2271 9.66195H21.1327C21.3106 9.65971 21.4872 9.69312 21.6521 9.76019C21.8169 9.82726 21.9667 9.92664 22.0925 10.0525C22.2183 10.1783 22.3177 10.3281 22.3848 10.4929C22.4518 10.6577 22.4853 10.8343 22.483 11.0123V12.9651C22.483 13.1854 22.5706 13.3968 22.7264 13.5526C22.8822 13.7085 23.0936 13.796 23.314 13.796C23.5344 13.796 23.7457 13.7085 23.9016 13.5526C24.0574 13.3968 24.145 13.1854 24.145 12.9651V11.0123C24.1406 10.2147 23.8218 9.45107 23.2579 8.8871C22.6939 8.32313 21.9303 8.00436 21.1327 8H17.2271Z" fill="#CAC6B9"/>
<path d="M9.83097 12.134C9.61058 12.134 9.39922 12.2216 9.24339 12.3774C9.08755 12.5333 9 12.7446 9 12.965C9 13.1854 9.08755 13.3968 9.24339 13.5526C9.39922 13.7084 9.61058 13.796 9.83097 13.796H28.5279C28.7482 13.796 28.9596 13.7084 29.1154 13.5526C29.2713 13.3968 29.3588 13.1854 29.3588 12.965C29.3588 12.7446 29.2713 12.5333 29.1154 12.3774C28.9596 12.2216 28.7482 12.134 28.5279 12.134H9.83097Z" fill="#CAC6B9"/>
</g>
<circle cx="19" cy="19" r="18.5" stroke="#CAC6B9"/>
<defs>
<clipPath id="clip0_724_155">
<rect width="20.3588" height="22" fill="white" transform="translate(9 8)"/>
</clipPath>
</defs>
</svg>
