<svg width="27" height="27" viewBox="0 0 27 27" fill="none" xmlns="http://www.w3.org/2000/svg">
<path d="M10.1559 1.00048C10.0866 1.00516 10.0189 1.02274 9.95606 1.05232L6.8941 2.44438C6.77799 2.49535 6.68278 2.58442 6.62421 2.69685C6.56564 2.80928 6.54722 2.93833 6.57201 3.06265L7.19049 6.00181C6.7555 6.36532 6.3538 6.76689 5.99016 7.20173L3.05903 6.58346C2.93469 6.55886 2.80566 6.57735 2.69323 6.63588C2.5808 6.69441 2.49168 6.78949 2.44055 6.90544L1.04802 9.96588C0.996114 10.0827 0.985939 10.2139 1.0192 10.3373C1.05245 10.4608 1.12712 10.5691 1.23071 10.6441L3.8231 12.4699C3.80169 12.7272 3.7798 12.9802 3.7798 13.2437C3.7798 13.5071 3.80169 13.7668 3.8231 14.0265L1.23118 15.8523C1.12752 15.9272 1.05275 16.0355 1.01941 16.1589C0.986062 16.2824 0.996162 16.4136 1.04802 16.5305L2.44055 19.5914C2.49154 19.7075 2.58064 19.8026 2.69311 19.8612C2.80558 19.9197 2.93467 19.9382 3.05903 19.9134L5.99016 19.2951C6.35392 19.7297 6.75561 20.1311 7.19049 20.4945L6.57201 23.4337C6.54722 23.558 6.56564 23.6871 6.62421 23.7995C6.68278 23.9119 6.77799 24.001 6.8941 24.052L9.95606 25.4431C10.0729 25.4953 10.2041 25.5057 10.3276 25.4725C10.4512 25.4393 10.5596 25.3646 10.6345 25.2609L12.4695 22.6609C12.7273 22.6818 12.9819 22.7041 13.2435 22.7041C13.5052 22.7041 13.7602 22.6818 14.0181 22.6609L15.8531 25.2609C15.928 25.3646 16.0363 25.4393 16.1599 25.4725C16.2835 25.5057 16.4147 25.4953 16.5315 25.4431L19.5934 24.052C19.7095 24.001 19.8048 23.9119 19.8633 23.7995C19.9219 23.6871 19.9403 23.558 19.9155 23.4337L19.297 20.4945C19.7319 20.1311 20.1336 19.7297 20.4974 19.2951L23.4285 19.9134C23.5529 19.9382 23.682 19.9197 23.7944 19.8612C23.9069 19.8026 23.996 19.7075 24.047 19.5914L25.439 16.5305C25.491 16.4136 25.5011 16.2825 25.4679 16.159C25.4346 16.0356 25.3599 15.9273 25.2564 15.8523L22.664 14.0265C22.6854 13.7659 22.7073 13.509 22.7073 13.2437C22.7073 12.9783 22.6854 12.7272 22.664 12.4699L25.2564 10.6441C25.3599 10.5691 25.4346 10.4608 25.4679 10.3373C25.5011 10.2139 25.491 10.0827 25.439 9.96588L24.047 6.90496C23.9959 6.78901 23.9067 6.69393 23.7943 6.6354C23.6819 6.57687 23.5529 6.55838 23.4285 6.58299L20.4974 7.20126C20.1339 6.7663 19.7322 6.36472 19.297 6.00134L19.9155 3.06218C19.9403 2.93786 19.9219 2.80881 19.8633 2.69638C19.8048 2.58394 19.7095 2.49487 19.5934 2.44391L16.5315 1.0528C16.4146 1.00091 16.2834 0.990742 16.1599 1.02399C16.0364 1.05723 15.9281 1.13188 15.8531 1.23543L14.0266 3.83549C13.7688 3.81171 13.5152 3.78365 13.2435 3.78365C12.9719 3.78365 12.7202 3.81171 12.4609 3.83549L10.6345 1.23543C10.5807 1.15945 10.5087 1.09815 10.4251 1.05712C10.3415 1.01608 10.2489 0.996611 10.1559 1.00048Z" stroke="#0D3331" stroke-width="2" stroke-miterlimit="10"/>
<path d="M13.2438 7.96558C12.1986 7.96633 11.177 8.2769 10.3084 8.85802C9.43976 9.43913 8.763 10.2647 8.36371 11.2303C7.96442 12.1959 7.86053 13.2582 8.06518 14.2828C8.26983 15.3075 8.77383 16.2484 9.51344 16.9867C10.253 17.725 11.195 18.2275 12.2203 18.4306C13.2456 18.6337 14.3081 18.5283 15.2735 18.1277C16.2388 17.7272 17.0637 17.0495 17.6438 16.1803C18.2238 15.3111 18.533 14.2895 18.5323 13.2447C18.5299 11.844 17.9717 10.5015 16.9802 9.51174C15.9887 8.52202 14.6449 7.96595 13.2438 7.96558Z" stroke="#0D3331" stroke-width="2" stroke-miterlimit="10"/>
</svg>
