<svg width="196" height="45" viewBox="0 0 196 45" fill="none" xmlns="http://www.w3.org/2000/svg">
<path d="M60.4824 9.54852H66.4384V14.0485C66.7571 12.4855 67.639 11.094 68.9164 10.1385C70.349 9.20781 72.0613 8.80573 73.7584 9.00152V14.7755H72.8944C72.0691 14.7464 71.2462 14.8818 70.4737 15.1736C69.7012 15.4655 68.9944 15.908 68.3944 16.4755C67.7933 17.0783 67.325 17.8002 67.0196 18.5949C66.7143 19.3895 66.5786 20.2393 66.6214 21.0895V33.1905H60.4834L60.4824 9.54852Z" fill="#005431"/>
<path d="M79.624 32.1233C77.8054 31.0492 76.3126 29.5015 75.305 27.6453C74.2822 25.7268 73.751 23.5847 73.7589 21.4106C73.7667 19.2365 74.3134 17.0983 75.35 15.1873C76.3814 13.3077 77.8963 11.7379 79.738 10.6403C81.6262 9.51184 83.7905 8.92925 85.99 8.95728C88.139 8.92619 90.2548 9.48925 92.104 10.5843C93.9533 11.6794 95.4642 13.264 96.47 15.1633C97.4926 17.0871 98.0162 19.2367 97.993 21.4153C97.9948 22.1465 97.934 22.8765 97.811 23.5973H80.124C80.4328 24.9318 81.1573 26.1339 82.193 27.0303C83.2579 27.914 84.6099 28.3765 85.993 28.3303C87.1891 28.3507 88.3681 28.0443 89.403 27.4443C90.3694 26.8853 91.1817 26.0949 91.767 25.1443L96.541 28.7363C95.4828 30.3286 94.0032 31.5957 92.267 32.3963C90.3111 33.3377 88.1635 33.8125 85.993 33.7833C83.7592 33.8258 81.5569 33.2518 79.628 32.1243M91.813 19.0073C91.4703 17.677 90.7237 16.4857 89.676 15.5973C88.6279 14.7239 87.3089 14.2418 85.9446 14.2336C84.5803 14.2254 83.2555 14.6915 82.197 15.5523C81.144 16.4433 80.4164 17.6584 80.128 19.0073H91.813Z" fill="#005431"/>
<path d="M98.2637 29.6483L102.402 25.8743C104.129 27.8143 105.978 28.7843 107.949 28.7843C108.806 28.8356 109.655 28.5952 110.358 28.1023C110.632 27.8968 110.854 27.6287 111.004 27.3204C111.155 27.012 111.229 26.6722 111.222 26.3293C111.229 26.0175 111.156 25.709 111.008 25.4341C110.861 25.1592 110.645 24.9274 110.381 24.7613C109.288 24.1897 108.115 23.7852 106.903 23.5613C104.023 22.8646 102.089 21.91 101.103 20.6973C100.094 19.4187 99.5709 17.8247 99.6247 16.1973C99.5986 15.2071 99.7979 14.224 100.207 13.3222C100.617 12.4203 101.226 11.6233 101.989 10.9913C103.824 9.55644 106.119 8.83749 108.445 8.96829C110.149 8.91807 111.846 9.22781 113.423 9.87729C114.93 10.6127 116.234 11.7055 117.223 13.0603L112.767 16.4703C112.364 15.708 111.763 15.0689 111.026 14.6207C110.29 14.1724 109.446 13.9318 108.584 13.9243C107.836 13.8909 107.094 14.0724 106.447 14.4473C106.182 14.6116 105.967 14.8439 105.823 15.1199C105.679 15.3959 105.612 15.7055 105.629 16.0163C105.629 16.2576 105.685 16.4955 105.791 16.7121C105.898 16.9287 106.052 17.1182 106.243 17.2663C107.025 17.7693 107.899 18.1132 108.815 18.2783C112.057 19.127 114.278 20.1726 115.476 21.4153C116.075 22.0443 116.542 22.7864 116.851 23.5982C117.16 24.4099 117.305 25.2752 117.276 26.1433C117.288 27.532 116.869 28.8903 116.076 30.0303C115.24 31.2242 114.101 32.1735 112.776 32.7803C111.31 33.4625 109.709 33.8043 108.093 33.7803C106.255 33.8332 104.428 33.4912 102.734 32.7776C101.04 32.0639 99.5184 30.9951 98.2727 29.6433" fill="#005431"/>
<path d="M124.635 32.1232C122.817 31.0499 121.325 29.5032 120.316 27.6482C119.278 25.7379 118.746 23.5935 118.77 21.4192C118.754 19.2403 119.302 17.0942 120.361 15.1902C121.393 13.3109 122.907 11.7412 124.748 10.6432C126.637 9.51515 128.801 8.93259 131 8.9602C133.149 8.92923 135.265 9.49233 137.114 10.5874C138.964 11.6825 140.474 13.267 141.48 15.1662C142.503 17.0901 143.026 19.2396 143.003 21.4182C143.005 22.1494 142.944 22.8794 142.821 23.6002H125.135C125.444 24.9348 126.168 26.1369 127.204 27.0332C128.269 27.9169 129.621 28.3794 131.004 28.3332C132.2 28.3536 133.379 28.0472 134.414 27.4472C135.381 26.8882 136.193 26.0979 136.778 25.1472L141.552 28.7392C140.494 30.3315 139.015 31.5986 137.278 32.3992C135.322 33.3406 133.175 33.8154 131.004 33.7862C128.77 33.8288 126.568 33.2547 124.638 32.1272M136.823 19.0102C136.48 17.68 135.734 16.4887 134.686 15.6002C133.638 14.7267 132.319 14.2446 130.954 14.2364C129.59 14.2282 128.265 14.6944 127.206 15.5552C126.153 16.4461 125.426 17.6613 125.137 19.0102H136.823Z" fill="#005431"/>
<path d="M150.323 32.1233C148.504 31.0492 147.011 29.5015 146.004 27.6453C144.965 25.7349 144.433 23.5905 144.458 21.4163C144.441 19.2373 144.989 17.0912 146.049 15.1873C147.08 13.3078 148.595 11.738 150.436 10.6403C152.324 9.51193 154.488 8.92934 156.688 8.95727C158.837 8.9263 160.953 9.4894 162.802 10.5845C164.651 11.6796 166.162 13.2641 167.168 15.1633C168.19 17.0871 168.714 19.2367 168.691 21.4153C168.693 22.1464 168.632 22.8764 168.51 23.5973H150.823C151.132 24.9318 151.856 26.1338 152.892 27.0303C153.957 27.914 155.309 28.3765 156.692 28.3303C157.888 28.3506 159.067 28.0443 160.102 27.4443C161.068 26.8853 161.881 26.095 162.466 25.1443L167.24 28.7363C166.182 30.3285 164.702 31.5956 162.966 32.3963C161.01 33.3377 158.862 33.8125 156.692 33.7833C154.458 33.8259 152.255 33.2519 150.326 32.1243M162.511 19.0073C162.168 17.677 161.422 16.4856 160.374 15.5973C159.326 14.7239 158.007 14.2418 156.642 14.2336C155.278 14.2254 153.953 14.6915 152.895 15.5523C151.842 16.4432 151.114 17.6584 150.826 19.0073H162.511Z" fill="#005431"/>
<path d="M175.966 32.123C174.184 31.0245 172.719 29.4813 171.715 27.645C170.666 25.7544 170.125 23.624 170.146 21.462C170.128 19.2929 170.668 17.1557 171.715 15.256C172.718 13.4067 174.183 11.8482 175.966 10.732C177.719 9.62083 179.755 9.03699 181.831 9.05C183.46 8.97564 185.078 9.34476 186.514 10.118C187.715 10.8519 188.678 11.9178 189.287 13.187V0H195.425V33.19H189.469V29.326C188.845 30.6677 187.861 31.81 186.627 32.626C185.171 33.4654 183.505 33.8678 181.827 33.785C179.754 33.7989 177.72 33.2236 175.962 32.126M177.121 24.806C177.66 25.829 178.46 26.6914 179.44 27.306C180.456 27.9359 181.632 28.2595 182.827 28.238C184.048 28.26 185.251 27.9455 186.305 27.329C187.299 26.7449 188.11 25.8946 188.646 24.874C189.197 23.8227 189.478 22.6509 189.465 21.464C189.477 20.2699 189.195 19.0912 188.646 18.031C188.111 16.9975 187.301 16.1322 186.305 15.531C185.256 14.9008 184.051 14.5779 182.827 14.599C181.625 14.5797 180.442 14.903 179.417 15.531C178.435 16.1333 177.634 16.9894 177.098 18.009C176.547 19.0604 176.266 20.2321 176.279 21.419C176.271 22.6006 176.561 23.7653 177.121 24.806Z" fill="#005431"/>
<path d="M38.0469 1.76197C37.8116 1.57695 37.519 1.47995 37.2198 1.48774C36.9206 1.49553 36.6335 1.60761 36.4081 1.80462C36.1828 2.00163 36.0333 2.27117 35.9856 2.56667C35.9379 2.86218 35.995 3.16506 36.1469 3.42297C37.7366 6.27457 38.5632 9.48824 38.5469 12.753C38.5469 20.523 28.5239 27.087 24.9179 29.197C24.5317 29.4229 24.0923 29.542 23.6449 29.542C23.1975 29.542 22.7581 29.4229 22.3719 29.197C18.7659 27.087 8.74388 20.524 8.74388 12.753C8.72705 9.48723 9.55373 6.27247 11.1439 3.41997C11.2932 3.16429 11.3495 2.86482 11.3033 2.57235C11.257 2.27988 11.111 2.01242 10.89 1.81534C10.669 1.61825 10.3867 1.50367 10.0908 1.49103C9.79498 1.47838 9.50388 1.56846 9.26688 1.74597C5.34478 4.75083 2.4625 8.90884 1.02493 13.6359C-0.412651 18.363 -0.333302 23.4217 1.25183 28.1014C2.83696 32.7811 5.84823 36.8467 9.86265 39.727C13.8771 42.6074 18.6929 44.1579 23.6338 44.1606C28.5747 44.1634 33.3923 42.6183 37.4099 39.7424C41.4275 36.8665 44.4433 32.8042 46.0336 28.1263C47.624 23.4484 47.7089 18.3898 46.2766 13.6611C44.8443 8.9324 41.9656 4.77119 38.0469 1.76197Z" fill="#005431"/>
<path d="M32.9219 10.5641C32.9219 12.3985 32.3779 14.1918 31.3589 15.7171C30.3398 17.2425 28.8913 18.4314 27.1966 19.1336C25.5018 19.8358 23.6369 20.0197 21.8377 19.6621C20.0384 19.3046 18.3856 18.4215 17.0882 17.1246C15.7907 15.8277 14.907 14.1753 14.5486 12.3762C14.1902 10.5771 14.3734 8.71212 15.0748 7.01709C15.7763 5.32205 16.9646 3.87306 18.4895 2.85332C20.0144 1.83358 21.8074 1.28888 23.6419 1.28809C26.102 1.28809 28.4614 2.26538 30.201 4.00496C31.9406 5.74455 32.9179 8.10394 32.9179 10.5641" fill="#005431"/>
</svg>
