<svg xmlns="http://www.w3.org/2000/svg" width="19" height="22" viewBox="0 0 19 22" fill="none">
<g clip-path="url(#clip0_1360_344)">
<path d="M0 5.50261V16.4979L9.5 22L19 16.4979V5.50261L9.5 0L0 5.50261ZM9.5 11.4967C9.40111 11.4967 9.30444 11.4676 9.22221 11.413C9.13999 11.3585 9.0759 11.2809 9.03806 11.1902C9.00022 11.0995 8.99031 10.9997 9.00961 10.9034C9.0289 10.8071 9.07652 10.7186 9.14645 10.6492C9.21637 10.5798 9.30546 10.5325 9.40245 10.5133C9.49944 10.4942 9.59998 10.504 9.69134 10.5416C9.7827 10.5792 9.86079 10.6428 9.91574 10.7244C9.97068 10.8061 10 10.9021 10 11.0002C10 11.1319 9.94732 11.2582 9.85355 11.3513C9.75979 11.4444 9.63261 11.4967 9.5 11.4967ZM9 9.60226C8.80746 9.66985 8.63086 9.77577 8.481 9.91353L7.394 9.26815L9 8.33582V9.60226ZM8.0205 10.7972C7.99316 10.9312 7.99316 11.0693 8.0205 11.2033L7 11.8114V10.1891L8.0205 10.7972ZM8.481 12.088C8.63095 12.2254 8.80755 12.3309 9 12.3982V13.6647L7.394 12.7343L8.481 12.088ZM10 12.3982C10.1925 12.3306 10.3691 12.2247 10.519 12.087L11.606 12.7323L10 13.6647V12.3982ZM10.9795 11.2033C11.0068 11.0693 11.0068 10.9312 10.9795 10.7972L12 10.1891V11.8114L10.9795 11.2033ZM10.519 9.91254C10.3691 9.77514 10.1925 9.66956 10 9.60226V8.33582L11.606 9.26616L10.519 9.91254ZM9 7.18655L6.416 8.68334L5.438 8.10051L9 6.03728V7.18655ZM6 9.59332V12.4072L5 13.0029V8.99759L6 9.59332ZM6.416 13.3167L9 14.8134V15.9627L5.438 13.9005L6.416 13.3167ZM10 14.8134L12.584 13.3172L13.562 13.9005L10 15.9632V14.8134ZM13 12.4072V9.59332L14 8.99759V13.0029L13 12.4072ZM12.584 8.68383L10 7.18655V6.03728L13.562 8.10051L12.584 8.68383ZM9 4.88751L4.4595 7.51867L3.481 6.93485L9 3.73824V4.88751ZM4 8.40185V13.5986L3 14.1944V7.80612L4 8.40185ZM4.4595 14.4828L9 17.113V18.2623L3.481 15.0656L4.4595 14.4828ZM10 17.113L14.5405 14.4818L15.519 15.0647L10 18.2623V17.113ZM15 13.5986V8.40185L16 7.80612V14.1944L15 13.5986ZM14.5405 7.51768L10 4.88751V3.73824L15.519 6.93485L14.5405 7.51768ZM9 2.58897L2.5025 6.35451L1.524 5.7692L9 1.43969V2.58897ZM2 7.21038V14.7901L1 15.3859V6.61465L2 7.21038ZM2.5025 15.65L9 19.411V20.5603L1.524 16.2313L2.5025 15.65ZM10 19.411L16.4975 15.6475L17.476 16.2303L10 20.5613V19.411ZM17 14.7891V7.21038L18 6.61465V15.3859L17 14.7891ZM16.4975 6.34954L10 2.58897V1.43969L17.476 5.76969L16.4975 6.34954Z" fill="#9E977F"/>
</g>
<defs>
<clipPath id="clip0_1360_344">
<rect width="19" height="22" fill="white"/>
</clipPath>
</defs>
</svg>