<svg xmlns="http://www.w3.org/2000/svg" width="14" height="20" viewBox="0 0 14 20" >
<g clip-path="url(#clip0_1360_346)">
<path d="M14 6.96945C14.0008 5.64526 13.6226 4.34825 12.9099 3.23028C12.1972 2.1123 11.1793 1.21962 9.97551 0.656741C8.77169 0.0938654 7.43174 -0.115911 6.11253 0.051973C4.79331 0.219857 3.54943 0.758452 2.5265 1.6047C1.50358 2.45095 0.743943 3.56984 0.336534 4.83037C-0.0708755 6.0909 -0.109199 7.4409 0.226049 8.72233C0.561297 10.0038 1.25624 11.1636 2.22953 12.066C3.20281 12.9684 4.41415 13.5761 5.72174 13.8179V15.6058H4.86956C4.84926 15.6046 4.82892 15.6076 4.80989 15.6148C4.79086 15.622 4.77358 15.6331 4.7592 15.6474C4.74481 15.6618 4.73364 15.679 4.72644 15.6979C4.71923 15.7169 4.71615 15.7371 4.71739 15.7573V19.8482C4.71615 19.8685 4.71923 19.8887 4.72644 19.9077C4.73364 19.9266 4.74481 19.9438 4.7592 19.9581C4.77358 19.9725 4.79086 19.9836 4.80989 19.9907C4.82892 19.9979 4.84926 20.001 4.86956 19.9998H9.13043C9.15074 20.001 9.17108 19.9979 9.19011 19.9907C9.20914 19.9836 9.22642 19.9725 9.2408 19.9581C9.25519 19.9438 9.26636 19.9266 9.27356 19.9077C9.28077 19.8887 9.28385 19.8685 9.28261 19.8482V15.7573C9.28385 15.7371 9.28077 15.7169 9.27356 15.6979C9.26636 15.679 9.25519 15.6618 9.2408 15.6474C9.22642 15.6331 9.20914 15.622 9.19011 15.6148C9.17108 15.6076 9.15074 15.6046 9.13043 15.6058H8.27826V13.8179C9.88618 13.5236 11.3395 12.677 12.385 11.4256C13.4305 10.1742 14.002 8.59724 14 6.96945ZM2.58696 6.96945C2.58696 6.10041 2.84578 5.25089 3.33069 4.52831C3.8156 3.80573 4.50482 3.24255 5.3112 2.90998C6.11758 2.57741 7.00489 2.4904 7.86094 2.65994C8.71699 2.82948 9.50332 3.24796 10.1205 3.86247C10.7377 4.47697 11.158 5.25989 11.3282 6.11223C11.4985 6.96458 11.4111 7.84805 11.0771 8.65094C10.7431 9.45382 10.1775 10.1401 9.45176 10.6229C8.72603 11.1057 7.87282 11.3634 7 11.3634C5.82983 11.3626 4.70783 10.8994 3.8804 10.0755C3.05297 9.2517 2.58776 8.13455 2.58696 6.96945Z" fill="#005431"/>
<path d="M9.43482 5.75755C9.38222 5.75283 9.32937 5.76336 9.28264 5.78785C9.19298 5.87077 9.08752 5.93494 8.97252 5.97658C8.85751 6.01822 8.73529 6.03648 8.61308 6.03028C8.33162 6.0269 8.06265 5.91407 7.86361 5.71589C7.66458 5.51772 7.55126 5.24991 7.54786 4.96967C7.55154 4.78751 7.60408 4.60965 7.70003 4.45452C7.71524 4.43216 7.72337 4.40577 7.72337 4.37876C7.72337 4.35176 7.71524 4.32537 7.70003 4.303C7.6696 4.2424 7.63917 4.2121 7.5783 4.2121C7.38742 4.17694 7.19408 4.15667 7.00004 4.15149C6.45227 4.15149 5.9168 4.31322 5.46135 4.61622C5.00589 4.91923 4.65091 5.34991 4.44129 5.85379C4.23167 6.35767 4.17682 6.91212 4.28369 7.44704C4.39055 7.98196 4.65433 8.47331 5.04166 8.85897C5.42899 9.24462 5.92248 9.50725 6.45972 9.61366C6.99696 9.72006 7.55383 9.66545 8.0599 9.45673C8.56597 9.24802 8.99852 8.89457 9.30284 8.44109C9.60717 7.98761 9.7696 7.45446 9.7696 6.90907C9.76836 6.53221 9.68531 6.16007 9.52612 5.81816C9.49882 5.79363 9.46806 5.77321 9.43482 5.75755Z" fill="#005431"/>
</g>
<defs>
<clipPath id="clip0_1360_346">
<rect width="14" height="20" fill="white"/>
</clipPath>
</defs>
</svg>