<svg width="22" height="27" viewBox="0 0 22 27" fill="none" xmlns="http://www.w3.org/2000/svg">
<path d="M4.53711 21.8257C4.54478 23.2958 4.71847 24.7603 5.0549 26.1915H7.29374C6.91795 24.7665 6.72502 23.2994 6.71959 21.8257V21.6739C10.9373 21.1447 14.8169 19.0944 17.6303 15.9078C20.4437 12.7213 21.9975 8.61751 22.0001 4.3667C17.3693 4.36617 12.9279 6.20518 9.65302 9.47919C6.3781 12.7532 4.53786 17.194 4.53711 21.8248V21.8257Z" fill="#005431"/>
<path d="M2.54062 19.2557C3.13146 14.7838 5.24852 10.6532 8.53382 7.56224C7.93623 4.71649 6.55065 2.09606 4.53522 0V0.00199261C-0.516614 5.23117 -1.17731 13.2805 2.54033 19.2554L2.54062 19.2557Z" fill="#005431"/>
</svg>
