<svg width="67" height="60" viewBox="0 0 67 60" fill="none" xmlns="http://www.w3.org/2000/svg">
<path d="M53.1306 0.661893C52.802 0.403512 52.3935 0.268052 51.9756 0.278928C51.5577 0.289804 51.1568 0.446332 50.8421 0.721456C50.5274 0.996581 50.3187 1.37301 50.2521 1.78569C50.1854 2.19836 50.2651 2.62134 50.4772 2.98152C52.6973 6.96384 53.8517 11.4518 53.8289 16.0111C53.8289 26.8621 39.8315 36.0288 34.7957 38.9755C34.2563 39.291 33.6427 39.4573 33.0179 39.4573C32.3931 39.4573 31.7795 39.291 31.2401 38.9755C26.2043 36.0288 12.2083 26.8635 12.2083 16.0111C12.1848 11.4504 13.3393 6.96091 15.56 2.97733C15.7685 2.62026 15.8472 2.20205 15.7825 1.79361C15.7179 1.38517 15.514 1.01166 15.2054 0.736427C14.8968 0.461191 14.5025 0.301175 14.0893 0.283517C13.6762 0.26586 13.2697 0.391649 12.9387 0.639549C7.46138 4.83591 3.43621 10.6427 1.4286 17.2442C-0.579005 23.8457 -0.468191 30.9103 1.74548 37.4455C3.95915 43.9808 8.16446 49.6585 13.7707 53.681C19.3769 57.7035 26.1024 59.8687 33.0024 59.8726C39.9025 59.8764 46.6304 57.7187 52.2411 53.7024C57.8518 49.6861 62.0634 44.0131 64.2843 37.4803C66.5052 30.9475 66.6239 23.883 64.6236 17.2793C62.6234 10.6756 58.6033 4.86434 53.1306 0.661893Z" fill="#005431"/>
<path d="M45.9736 12.9541C45.9736 15.516 45.214 18.0203 43.7908 20.1505C42.3677 22.2807 40.3448 23.9411 37.9781 24.9217C35.6114 25.9023 33.007 26.1592 30.4943 25.6598C27.9816 25.1604 25.6734 23.9272 23.8615 22.1161C22.0496 20.305 20.8154 17.9973 20.3149 15.4848C19.8144 12.9723 20.0702 10.3678 21.0498 8.00068C22.0294 5.63352 23.6889 3.60997 25.8185 2.18588C27.948 0.761791 30.452 0.00110472 33.0139 0C36.4495 0 39.7445 1.36481 42.1738 3.79418C44.6032 6.22356 45.968 9.5185 45.968 12.9541" fill="#005431"/>
</svg>
