<svg width="67" height="60" viewBox="0 0 67 60" fill="none" xmlns="http://www.w3.org/2000/svg">
<path d="M53.1306 0.661954C52.802 0.403573 52.3935 0.268113 51.9756 0.278989C51.5577 0.289865 51.1568 0.446393 50.8421 0.721517C50.5274 0.996642 50.3187 1.37307 50.2521 1.78575C50.1854 2.19842 50.2651 2.6214 50.4772 2.98158C52.6973 6.9639 53.8517 11.4519 53.8289 16.0111C53.8289 26.8621 39.8315 36.0289 34.7957 38.9756C34.2563 39.2911 33.6427 39.4574 33.0179 39.4574C32.3931 39.4574 31.7795 39.2911 31.2401 38.9756C26.2043 36.0289 12.2083 26.8635 12.2083 16.0111C12.1848 11.4505 13.3393 6.96097 15.56 2.97739C15.7685 2.62032 15.8472 2.20211 15.7825 1.79367C15.7179 1.38523 15.514 1.01172 15.2054 0.736488C14.8968 0.461252 14.5025 0.301236 14.0893 0.283578C13.6762 0.265921 13.2697 0.39171 12.9387 0.63961C7.46138 4.83597 3.43621 10.6427 1.4286 17.2442C-0.579005 23.8457 -0.468191 30.9103 1.74548 37.4456C3.95915 43.9809 8.16446 49.6586 13.7707 53.6811C19.3769 57.7036 26.1024 59.8688 33.0024 59.8726C39.9025 59.8765 46.6304 57.7187 52.2411 53.7024C57.8518 49.6862 62.0634 44.0132 64.2843 37.4804C66.5052 30.9475 66.6239 23.8831 64.6236 17.2794C62.6234 10.6756 58.6033 4.8644 53.1306 0.661954Z" fill="#EFE3D0"/>
<path d="M45.9735 12.9541C45.9735 15.516 45.2139 18.0203 43.7907 20.1505C42.3675 22.2807 40.3447 23.9411 37.978 24.9217C35.6112 25.9023 33.0069 26.1592 30.4942 25.6598C27.9815 25.1604 25.6732 23.9272 23.8614 22.1161C22.0495 20.305 20.8153 17.9973 20.3148 15.4848C19.8143 12.9723 20.0701 10.3678 21.0497 8.00068C22.0293 5.63352 23.6888 3.60997 25.8183 2.18588C27.9479 0.761791 30.4519 0.00110472 33.0138 0C36.4494 0 39.7444 1.36481 42.1737 3.79418C44.6031 6.22356 45.9679 9.5185 45.9679 12.9541" fill="#EFE3D0"/>
</svg>
