<svg width="15" height="15" viewBox="0 0 15 15" fill="none" xmlns="http://www.w3.org/2000/svg">
<g id="u:trash-alt">
<path id="Vector" d="M6.25 11.25C6.41576 11.25 6.57473 11.1842 6.69194 11.0669C6.80915 10.9497 6.875 10.7908 6.875 10.625V6.875C6.875 6.70924 6.80915 6.55027 6.69194 6.43306C6.57473 6.31585 6.41576 6.25 6.25 6.25C6.08424 6.25 5.92527 6.31585 5.80806 6.43306C5.69085 6.55027 5.625 6.70924 5.625 6.875V10.625C5.625 10.7908 5.69085 10.9497 5.80806 11.0669C5.92527 11.1842 6.08424 11.25 6.25 11.25ZM12.5 3.75H10V3.125C10 2.62772 9.80246 2.15081 9.45083 1.79917C9.09919 1.44754 8.62228 1.25 8.125 1.25H6.875C6.37772 1.25 5.90081 1.44754 5.54917 1.79917C5.19754 2.15081 5 2.62772 5 3.125V3.75H2.5C2.33424 3.75 2.17527 3.81585 2.05806 3.93306C1.94085 4.05027 1.875 4.20924 1.875 4.375C1.875 4.54076 1.94085 4.69973 2.05806 4.81694C2.17527 4.93415 2.33424 5 2.5 5H3.125V11.875C3.125 12.3723 3.32254 12.8492 3.67417 13.2008C4.02581 13.5525 4.50272 13.75 5 13.75H10C10.4973 13.75 10.9742 13.5525 11.3258 13.2008C11.6775 12.8492 11.875 12.3723 11.875 11.875V5H12.5C12.6658 5 12.8247 4.93415 12.9419 4.81694C13.0592 4.69973 13.125 4.54076 13.125 4.375C13.125 4.20924 13.0592 4.05027 12.9419 3.93306C12.8247 3.81585 12.6658 3.75 12.5 3.75ZM6.25 3.125C6.25 2.95924 6.31585 2.80027 6.43306 2.68306C6.55027 2.56585 6.70924 2.5 6.875 2.5H8.125C8.29076 2.5 8.44973 2.56585 8.56694 2.68306C8.68415 2.80027 8.75 2.95924 8.75 3.125V3.75H6.25V3.125ZM10.625 11.875C10.625 12.0408 10.5592 12.1997 10.4419 12.3169C10.3247 12.4342 10.1658 12.5 10 12.5H5C4.83424 12.5 4.67527 12.4342 4.55806 12.3169C4.44085 12.1997 4.375 12.0408 4.375 11.875V5H10.625V11.875ZM8.75 11.25C8.91576 11.25 9.07473 11.1842 9.19194 11.0669C9.30915 10.9497 9.375 10.7908 9.375 10.625V6.875C9.375 6.70924 9.30915 6.55027 9.19194 6.43306C9.07473 6.31585 8.91576 6.25 8.75 6.25C8.58424 6.25 8.42527 6.31585 8.30806 6.43306C8.19085 6.55027 8.125 6.70924 8.125 6.875V10.625C8.125 10.7908 8.19085 10.9497 8.30806 11.0669C8.42527 11.1842 8.58424 11.25 8.75 11.25Z" fill="#9E977F"/>
</g>
</svg>
